<?xml version="1.0" encoding="utf-8"?>
<!-- Generator: Adobe Illustrator 26.5.0, SVG Export Plug-In . SVG Version: 6.00 Build 0)  -->
<svg version="1.1" id="Layer_1" xmlns="http://www.w3.org/2000/svg" xmlns:xlink="http://www.w3.org/1999/xlink" x="0px" y="0px"
	 viewBox="0 0 250 267" style="enable-background:new 0 0 250 267;" xml:space="preserve">
<style type="text/css">
	.st0{fill:none;stroke:#68C07D;stroke-width:15;stroke-miterlimit:10;}
	.st1{fill:#FFFFFF;}
	.st2{fill:#4F514F;}
	.st3{font-family:'Navigo-Regular';}
	.st4{font-size:58px;}
</style>
<g>
	<path class="st0" d="M50.6,170.19c0,0-40.93-7.15-41.14-47.37s31.79-46.99,31.79-46.99S32.5,33.07,71.14,14.29
		s71.95,22.19,71.95,22.19s25.05-13.35,41.42,1.78s14.31,34.28,14.31,34.28s43.86,6.04,40.57,51.71
		c-3.28,45.68-47.64,44.7-47.64,44.7L50.6,170.19z"/>
	<g>
		<path class="st1" d="M114.85,202.77c-0.82-0.01-1.59-0.33-2.16-0.92c-0.57-0.58-0.89-1.36-0.88-2.17l0.37-45.74l-14.32-0.16
			c-0.98-0.01-1.86-0.58-2.27-1.47c-0.42-0.89-0.29-1.92,0.32-2.69l28.17-34.91c0.7-0.87,1.74-1.36,2.85-1.36
			c1.1,0,2.13,0.48,2.83,1.33l28.96,35.05c0.58,0.7,0.7,1.66,0.31,2.48s-1.2,1.34-2.11,1.34l-14.95-0.12
			c-0.12,0-0.21,0.09-0.21,0.21l-0.37,45.84c-0.02,1.91-1.58,3.47-3.5,3.47L114.85,202.77z"/>
		<g>
			<path class="st2" d="M126.94,114.85c0.62,0,1.24,0.26,1.67,0.79l28.97,35.05c0.45,0.55,0.06,1.37-0.65,1.37c0,0,0,0-0.01,0
				l-14.93-0.12c0,0-0.01,0-0.01,0c-0.94,0-1.7,0.75-1.71,1.69l-0.37,45.85c-0.01,1.1-0.9,1.98-1.99,1.98c-0.01,0-0.01,0-0.02,0
				l-23.02-0.19c-0.86-0.01-1.56-0.71-1.55-1.58l0.37-45.74c0.01-0.8-0.64-1.46-1.44-1.47l-14.35-0.2c-0.88-0.01-1.35-1.03-0.8-1.71
				l28.17-34.92C125.68,115.12,126.31,114.85,126.94,114.85 M126.94,111.85c-1.57,0-3.03,0.7-4.02,1.92l-28.17,34.92
				c-0.98,1.22-1.18,2.85-0.51,4.27s2.05,2.31,3.61,2.33l12.82,0.17l-0.36,44.21c-0.01,1.22,0.46,2.37,1.31,3.24s2,1.35,3.22,1.36
				l23.02,0.19c2.77,0,5.01-2.22,5.04-4.95l0.36-44.55l13.64,0.11c1.53,0,2.86-0.84,3.5-2.2c0.64-1.36,0.44-2.92-0.51-4.08
				l-28.97-35.05C129.93,112.53,128.48,111.85,126.94,111.85L126.94,111.85z"/>
		</g>
	</g>
	<text transform="matrix(1 0 0 1 12.7174 251.4069)" class="st2 st3 st4">&lt;code/&gt;</text>
</g>
</svg>
