<?xml version="1.0" encoding="utf-8"?>
<!-- Generator: Adobe Illustrator 26.5.0, SVG Export Plug-In . SVG Version: 6.00 Build 0)  -->
<svg version="1.1" id="Layer_1" xmlns="http://www.w3.org/2000/svg" xmlns:xlink="http://www.w3.org/1999/xlink" x="0px" y="0px"
	 viewBox="0 0 445 355" style="enable-background:new 0 0 445 355;" xml:space="preserve">
<style type="text/css">
	.st0{fill:none;stroke:#5F56A0;stroke-width:19.6247;stroke-miterlimit:10;}
	.st1{fill:#FFFFFF;stroke:#342D6F;stroke-width:1.5;stroke-miterlimit:10;}
	.st2{fill:#FFFFFF;stroke:#342D6F;stroke-width:1.5;stroke-linecap:round;stroke-miterlimit:10;}
	.st3{fill:none;stroke:#74B1DF;stroke-width:4;stroke-linecap:round;stroke-miterlimit:10;}
	.st4{fill:none;stroke:#74B1DF;stroke-width:2;stroke-linecap:round;stroke-miterlimit:10;}
</style>
<g>
	<path class="st0" d="M119.36,277.6c0,0-67.81-11.85-68.16-78.48s52.66-77.84,52.66-77.84S89.37,50.45,153.38,19.34
		S272.56,56.1,272.56,56.1s41.49-22.12,68.62,2.95s23.71,56.79,23.71,56.79s72.65,10,67.22,85.67s-78.92,74.05-78.92,74.05
		L119.36,277.6z"/>
	<g>
		<path class="st1" d="M267.25,279.5l-158.57-25.13c-5.27-0.91-4.79-2.1-4.21-7.62l15.22-111.83c0.86-6.17,3.51-6.75,8.59-6.63
			l157.59,0.39c4.89,0.26,6.67,3.77,6.17,10.15l-16.49,134.25C274.64,278.88,272.54,280.25,267.25,279.5z"/>
		<path class="st1" d="M122.32,130.86"/>
		<path class="st1" d="M123.81,137.88l-13.9,104.44c-0.15,1.11,0.63,2.13,1.74,2.28l153.28,21.1c1.12,0.15,2.14-0.63,2.29-1.75
			l15.99-123.79c0.13-0.99-0.64-1.88-1.64-1.89l-155.99-1.91C124.68,136.35,123.92,137,123.81,137.88z"/>
		<path class="st1" d="M269,282.15l1.44,0.29c0.53,0.11,0.91,0.57,0.91,1.11l0.07,8.79c0,0,0.26,1.96-1.22,2.65
			s-85.57,53.18-85.57,53.18s-2.48,2.61-11.77,0.35S3.96,305.71,3.96,305.71s-0.8-0.48-1.01-2.22c-0.14-1.16-0.31-3.37-0.41-4.74
			c-0.05-0.7,0.35-1.35,1-1.61l99.46-40.18c0.47-0.19,0.97-0.25,1.47-0.17L269,282.15"/>
		<path class="st1" d="M2.46,297.58l167.04,40.34c8.03,2.09,11.22-0.19,14.25-2.33c0.35-0.25,3.99-2.9,4.36-3.12l83.24-49.84"/>
		<path class="st1" d="M207.9,313.56L54.45,280.94c-0.17-0.04-0.19-0.27-0.03-0.34l44.09-18.28c0.59-0.24,1.23-0.32,1.85-0.21
			l149.89,25.52c0.67,0.11,0.84,1,0.26,1.35l-39.74,24.1C209.91,313.6,208.88,313.77,207.9,313.56z"/>
		<path class="st1" d="M107.41,309.86l-33.38-7.16c-0.78-0.17-0.9-1.24-0.17-1.57l17.76-8.1c0.67-0.3,1.42-0.38,2.13-0.23
			l33.27,7.27c0.69,0.15,0.79,1.09,0.15,1.38l-17.75,8.19C108.79,309.92,108.08,310,107.41,309.86z"/>
		<line class="st2" x1="209.91" y1="283.72" x2="175.26" y2="303.8"/>
		<line class="st2" x1="219.64" y1="286.22" x2="184.99" y2="306.3"/>
		<line class="st2" x1="228.98" y1="287.73" x2="194.33" y2="307.8"/>
		<line class="st2" x1="238.71" y1="290.22" x2="204.06" y2="310.3"/>
		<line class="st2" x1="195.85" y1="284.36" x2="164.16" y2="301.76"/>
		<line class="st2" x1="180.6" y1="285.19" x2="156.45" y2="298.64"/>
		<line class="st2" x1="163.81" y1="287.23" x2="146.46" y2="296.89"/>
		<line class="st2" x1="215.87" y1="305.48" x2="111.78" y2="284.62"/>
		<line class="st2" x1="224.51" y1="301.55" x2="134.83" y2="283.18"/>
		<line class="st2" x1="232.56" y1="296.96" x2="160.57" y2="283.29"/>
	</g>
	<ellipse class="st3" cx="195.12" cy="198.83" rx="23.46" ry="26.54"/>
	<path class="st4" d="M189.87,196.91l-0.14,17.43c0,0.33,0.26,0.6,0.59,0.6l8.77,0.07c0.42,0,0.76-0.33,0.77-0.75l0.14-17.47
		c0-0.36,0.3-0.65,0.66-0.64l5.69,0.05c0.27,0,0.42-0.31,0.25-0.52l-11.04-13.36c-0.33-0.4-0.95-0.4-1.28,0.01l-10.74,13.31
		c-0.21,0.26-0.03,0.65,0.31,0.65l5.47,0.07C189.63,196.35,189.87,196.6,189.87,196.91z"/>
</g>
</svg>
