<?xml version="1.0" encoding="utf-8"?>
<!-- Generator: Adobe Illustrator 26.5.0, SVG Export Plug-In . SVG Version: 6.00 Build 0)  -->
<svg version="1.1" id="Layer_1" xmlns="http://www.w3.org/2000/svg" xmlns:xlink="http://www.w3.org/1999/xlink" x="0px" y="0px"
	 viewBox="0 0 386 431" style="enable-background:new 0 0 386 431;" xml:space="preserve">
<style type="text/css">
	.st0{fill:none;stroke:#F3766B;stroke-width:3;stroke-miterlimit:10;}
	.st1{fill:none;stroke:#6056A5;stroke-width:5.7966;stroke-miterlimit:10;}
	.st2{fill:none;stroke:#5B4FA1;stroke-width:5.7966;stroke-miterlimit:10;}
	.st3{fill:none;stroke:#362D73;stroke-width:5.7966;stroke-miterlimit:10;}
</style>
<g>
	<polyline class="st0" points="189,177.17 189,87.35 62.68,175.56 	"/>
	<line class="st0" x1="317.85" y1="174.55" x2="189" y2="87.35"/>
	<polygon class="st0" points="189,258 44.75,342.7 62.68,256.39 142.97,342.7 	"/>
	<polyline class="st0" points="142.97,342.7 317.85,255.38 44.75,342.7 	"/>
	<polygon class="st0" points="189,258 240.17,342.7 62.68,256.39 340.44,342.7 	"/>
	<polyline class="st0" points="340.44,342.7 317.85,255.38 240.17,342.7 	"/>
	<circle class="st1" cx="44.75" cy="383.11" r="40.41"/>
	<circle class="st1" cx="142.97" cy="383.11" r="40.41"/>
	<circle class="st1" cx="240.17" cy="383.11" r="40.41"/>
	<circle class="st1" cx="340.44" cy="383.11" r="40.41"/>
	<circle class="st2" cx="189" cy="215.78" r="40.41"/>
	<circle class="st3" cx="189" cy="46.94" r="40.41"/>
	<circle class="st2" cx="317.85" cy="214.96" r="40.41"/>
	<circle class="st2" cx="62.68" cy="215.98" r="40.41"/>
</g>
</svg>
