<svg version="1.1" id="Layer_1" xmlns="http://www.w3.org/2000/svg" xmlns:xlink="http://www.w3.org/1999/xlink" x="0px" y="0px" viewBox="0 0 329.24 275.91" style="enable-background:new 0 0 329.24 275.91;" xml:space="preserve">
<g>
	<g>
		<path d="M3.16,107.99c65.45-32.1,133.73-58.9,203.66-79.78c9.47-2.55,21.1-6.03,30.57-8.38c6.97-1.63,24.18-6.07,31.05-7.35    c6.42-1.29,17.19-3.54,23.61-4.82c6.02-1.01,23.21-3.69,29.36-4.7c0,0,3.22,59.74,3.22,59.74c-5.78-0.06-21.7-0.25-27.11-0.32    c-8.21,0.26-19.19,0.61-27.39,0.87c-9.49,0.67-25.7,1.6-35.08,2.63c-5.03,0.5-15.1,1.54-20.12,2.04    c-57.44,6.85-114.61,18.01-170.69,32.48c-4.88,1.24-15.03,3.95-19.9,5.31c-6.62,1.83-13.23,3.72-19.79,5.7    C4.55,111.4,3.16,107.99,3.16,107.99L3.16,107.99z" fill="#f3eef6"/>
	</g>
	<g>
		<path d="M108.6,93.7c-3.65,28.79-5.7,58.14-5.72,87.07c0.13,21.24,1.11,42.22,5.44,62.63c1.4,6.45,3.14,12.64,5.34,18.02    l-41.45,11.17c-7.15-44.66,4.76-95.05,15.99-138.03c3.95-14.38,8.21-28.54,13.04-42.65C101.24,91.91,108.6,93.7,108.6,93.7    L108.6,93.7z" fill="#f3eef6"/>
	</g>
	<g>
		<path d="M252.09,71.22c-3.65,28.79-5.7,58.14-5.72,87.07c0.13,21.24,1.11,42.22,5.44,62.63c1.4,6.45,3.14,12.64,5.34,18.02    l-41.45,11.17c-7.15-44.66,4.76-95.05,15.99-138.03c3.95-14.38,8.21-28.54,13.04-42.65C244.73,69.43,252.09,71.22,252.09,71.22    L252.09,71.22z" fill="#f3eef6"/>
	</g>
</g>
</svg>